<?xml version="1.0" encoding="utf-8" standalone="no"?>
<!DOCTYPE svg PUBLIC "-//W3C//DTD SVG 1.1//EN"
  "http://www.w3.org/Graphics/SVG/1.1/DTD/svg11.dtd">
<!-- Created with matplotlib (https://matplotlib.org/) -->
<svg height="345.6pt" version="1.1" viewBox="0 0 460.8 345.6" width="460.8pt" xmlns="http://www.w3.org/2000/svg" xmlns:xlink="http://www.w3.org/1999/xlink">
 <defs>
  <style type="text/css">
*{stroke-linecap:butt;stroke-linejoin:round;}
  </style>
 </defs>
 <g id="figure_1">
  <g id="patch_1">
   <path d="M 0 345.6 
L 460.8 345.6 
L 460.8 0 
L 0 0 
z
" style="fill:#ffffff;"/>
  </g>
  <g id="axes_1">
   <g id="patch_2">
    <path d="M 57.6 307.584 
L 414.72 307.584 
L 414.72 41.472 
L 57.6 41.472 
z
" style="fill:#ffffff;"/>
   </g>
   <g id="PolyCollection_1">
    <path clip-path="url(#p215e4ccfd7)" d="M 73.832727 1372.032 
L 73.832727 1372.032 
L 76.011617 691.160919 
L 78.190506 382.191737 
L 80.369396 289.479865 
L 82.548286 259.628168 
L 84.727175 232.194942 
L 86.906065 222.033634 
L 89.084954 215.522422 
L 91.263844 212.207134 
L 93.442733 207.675281 
L 95.621623 203.550247 
L 97.800513 201.902924 
L 99.979402 200.045517 
L 102.158292 197.794215 
L 104.337181 197.104086 
L 106.516071 197.746934 
L 108.69496 196.172696 
L 110.87385 193.477706 
L 113.052739 192.672104 
L 115.231629 189.365877 
L 117.410519 188.61623 
L 119.589408 191.33052 
L 121.768298 187.430553 
L 123.947187 184.480689 
L 126.126077 183.901418 
L 128.304966 182.604571 
L 130.483856 182.221434 
L 132.662746 180.279588 
L 134.841635 178.917527 
L 137.020525 177.553736 
L 139.199414 178.144051 
L 141.378304 173.666616 
L 143.557193 173.726655 
L 145.736083 171.971026 
L 147.914973 172.026459 
L 150.093862 171.767243 
L 152.272752 170.198048 
L 154.451641 172.151738 
L 156.630531 168.539046 
L 158.80942 166.322059 
L 160.98831 167.771179 
L 163.1672 172.055208 
L 165.346089 167.146741 
L 167.524979 165.999632 
L 169.703868 166.948463 
L 171.882758 166.484166 
L 174.061647 164.81338 
L 176.240537 163.483404 
L 178.419426 164.089105 
L 180.598316 162.859337 
L 182.777206 160.92753 
L 184.956095 162.242887 
L 187.134985 162.624125 
L 189.313874 160.726101 
L 191.492764 159.77793 
L 193.671653 159.61981 
L 195.850543 161.385004 
L 198.029433 159.465187 
L 200.208322 158.368543 
L 202.387212 159.610923 
L 204.566101 159.705185 
L 206.744991 157.790486 
L 208.92388 157.641975 
L 211.10277 157.882202 
L 213.28166 156.807485 
L 215.460549 157.706487 
L 217.639439 157.326312 
L 219.818328 156.216183 
L 221.997218 156.933929 
L 224.176107 156.987059 
L 226.354997 156.605165 
L 228.533887 156.624556 
L 230.712776 156.886416 
L 232.891666 156.419696 
L 235.070555 156.08304 
L 237.249445 155.468503 
L 239.428334 155.179864 
L 241.607224 155.6632 
L 243.786113 155.386012 
L 245.965003 156.10342 
L 248.143893 156.3619 
L 250.322782 156.622035 
L 252.501672 155.071874 
L 254.680561 155.640309 
L 256.859451 155.222349 
L 259.03834 154.068839 
L 261.21723 154.595516 
L 263.39612 154.359551 
L 265.575009 155.865818 
L 267.753899 156.522815 
L 269.932788 154.934806 
L 272.111678 154.459257 
L 274.290567 152.589538 
L 276.469457 152.664378 
L 278.648347 155.126915 
L 280.827236 153.881871 
L 283.006126 153.856447 
L 285.185015 153.636702 
L 287.363905 154.307455 
L 289.542794 153.312045 
L 291.721684 152.964357 
L 293.900574 153.303131 
L 296.079463 155.198483 
L 298.258353 154.791876 
L 300.437242 154.279424 
L 302.616132 154.032395 
L 304.795021 152.668616 
L 306.973911 152.517323 
L 309.1528 152.841116 
L 311.33169 153.997166 
L 313.51058 154.817053 
L 315.689469 153.168644 
L 317.868359 154.832895 
L 320.047248 154.222863 
L 322.226138 153.569565 
L 324.405027 153.909956 
L 326.583917 153.639301 
L 328.762807 153.420053 
L 330.941696 153.339312 
L 333.120586 153.389676 
L 335.299475 153.623809 
L 337.478365 152.822825 
L 339.657254 153.154548 
L 341.836144 151.871073 
L 344.015034 153.36517 
L 346.193923 154.385668 
L 348.372813 151.498047 
L 350.551702 151.430243 
L 352.730592 153.748802 
L 354.909481 152.889839 
L 357.088371 150.992222 
L 359.267261 152.311896 
L 361.44615 150.244451 
L 363.62504 150.308343 
L 365.803929 149.560836 
L 367.982819 151.267576 
L 370.161708 150.513046 
L 372.340598 149.843259 
L 374.519487 150.440619 
L 376.698377 150.951629 
L 378.877267 150.741245 
L 381.056156 150.658902 
L 383.235046 151.424015 
L 385.413935 150.075709 
L 387.592825 150.849727 
L 389.771714 150.195612 
L 391.950604 148.759041 
L 394.129494 148.69619 
L 396.308383 149.888958 
L 398.487273 148.465074 
L 398.487273 141.040974 
L 398.487273 141.040974 
L 396.308383 140.563266 
L 394.129494 140.455042 
L 391.950604 140.451327 
L 389.771714 139.665252 
L 387.592825 138.715457 
L 385.413935 140.258243 
L 383.235046 138.909937 
L 381.056156 139.911594 
L 378.877267 139.829251 
L 376.698377 139.086643 
L 374.519487 139.065429 
L 372.340598 140.786373 
L 370.161708 140.767082 
L 367.982819 140.958728 
L 365.803929 139.472124 
L 363.62504 139.966473 
L 361.44615 141.213085 
L 359.267261 141.451944 
L 357.088371 140.997538 
L 354.909481 141.051409 
L 352.730592 141.31603 
L 350.551702 142.097053 
L 348.372813 142.798017 
L 346.193923 140.856572 
L 344.015034 142.231886 
L 341.836144 142.957215 
L 339.657254 141.732876 
L 337.478365 142.005463 
L 335.299475 142.268927 
L 333.120586 142.443924 
L 330.941696 142.671696 
L 328.762807 143.714539 
L 326.583917 143.436155 
L 324.405027 142.928956 
L 322.226138 142.796259 
L 320.047248 142.852593 
L 317.868359 143.661825 
L 315.689469 143.551996 
L 313.51058 141.903587 
L 311.33169 143.492242 
L 309.1528 143.879524 
L 306.973911 143.848501 
L 304.795021 143.460664 
L 302.616132 142.629109 
L 300.437242 142.67776 
L 298.258353 143.348028 
L 296.079463 142.882285 
L 293.900574 143.417509 
L 291.721684 143.283195 
L 289.542794 144.473043 
L 287.363905 145.488257 
L 285.185015 144.207522 
L 283.006126 142.686785 
L 280.827236 142.483953 
L 278.648347 144.195709 
L 276.469457 143.64231 
L 274.290567 145.550366 
L 272.111678 143.976327 
L 269.932788 144.742634 
L 267.753899 143.864257 
L 265.575009 144.698662 
L 263.39612 145.258753 
L 261.21723 145.022788 
L 259.03834 144.839833 
L 256.859451 145.519539 
L 254.680561 145.160715 
L 252.501672 145.906558 
L 250.322782 145.184301 
L 248.143893 144.971348 
L 245.965003 144.579332 
L 243.786113 145.8881 
L 241.607224 147.26672 
L 239.428334 145.680296 
L 237.249445 144.622889 
L 235.070555 146.492064 
L 232.891666 146.510224 
L 230.712776 146.812272 
L 228.533887 145.714004 
L 226.354997 146.029075 
L 224.176107 146.061133 
L 221.997218 146.705623 
L 219.818328 147.600777 
L 217.639439 147.673368 
L 215.460549 148.239369 
L 213.28166 147.305155 
L 211.10277 148.12279 
L 208.92388 147.594249 
L 206.744991 149.160682 
L 204.566101 146.950303 
L 202.387212 149.232597 
L 200.208322 148.346081 
L 198.029433 149.496605 
L 195.850543 150.297044 
L 193.671653 151.352606 
L 191.492764 149.95263 
L 189.313874 150.955947 
L 187.134985 152.073859 
L 184.956095 151.627193 
L 182.777206 152.292054 
L 180.598316 153.612727 
L 178.419426 152.146415 
L 176.240537 153.106932 
L 174.061647 154.9703 
L 171.882758 153.417786 
L 169.703868 155.910289 
L 167.524979 155.617264 
L 165.346089 156.717323 
L 163.1672 155.711832 
L 160.98831 157.512149 
L 158.80942 157.542005 
L 156.630531 158.636634 
L 154.451641 156.97543 
L 152.272752 158.396896 
L 150.093862 158.424373 
L 147.914973 160.471461 
L 145.736083 160.349486 
L 143.557193 163.561281 
L 141.378304 164.50836 
L 139.199414 165.353165 
L 137.020525 165.411256 
L 134.841635 166.176361 
L 132.662746 167.7711 
L 130.483856 168.84519 
L 128.304966 170.768357 
L 126.126077 171.83695 
L 123.947187 173.682255 
L 121.768298 173.630055 
L 119.589408 175.821096 
L 117.410519 176.99785 
L 115.231629 178.731915 
L 113.052739 181.516696 
L 110.87385 182.366902 
L 108.69496 180.972904 
L 106.516071 183.301642 
L 104.337181 184.003626 
L 102.158292 185.146713 
L 99.979402 186.916659 
L 97.800513 186.655924 
L 95.621623 189.088985 
L 93.442733 191.350639 
L 91.263844 193.796834 
L 89.084954 196.92737 
L 86.906065 204.372254 
L 84.727175 212.720514 
L 82.548286 230.34892 
L 80.369396 260.342855 
L 78.190506 321.680263 
L 76.011617 568.707753 
L 73.832727 1372.032 
z
" style="fill:#1f77b4;fill-opacity:0.4;"/>
   </g>
   <g id="PolyCollection_2">
    <path clip-path="url(#p215e4ccfd7)" d="M 73.832727 1372.032 
L 73.832727 1372.032 
L 76.011617 572.863196 
L 78.190506 334.851446 
L 80.369396 263.249732 
L 82.548286 232.501788 
L 84.727175 221.019641 
L 86.906065 211.542132 
L 89.084954 207.609781 
L 91.263844 206.363861 
L 93.442733 208.974436 
L 95.621623 198.597397 
L 97.800513 202.093581 
L 99.979402 197.060809 
L 102.158292 197.959281 
L 104.337181 199.521122 
L 106.516071 192.923969 
L 108.69496 193.524834 
L 110.87385 191.08171 
L 113.052739 189.600981 
L 115.231629 194.096696 
L 117.410519 196.308408 
L 119.589408 193.3521 
L 121.768298 188.50338 
L 123.947187 190.304476 
L 126.126077 191.995897 
L 128.304966 190.020799 
L 130.483856 189.299095 
L 132.662746 185.133243 
L 134.841635 186.182014 
L 137.020525 187.286815 
L 139.199414 189.977684 
L 141.378304 188.73772 
L 143.557193 186.843672 
L 145.736083 188.096831 
L 147.914973 186.074284 
L 150.093862 186.334828 
L 152.272752 188.898048 
L 154.451641 188.979012 
L 156.630531 185.957303 
L 158.80942 186.409038 
L 160.98831 187.201735 
L 163.1672 184.495589 
L 165.346089 186.233701 
L 167.524979 188.616729 
L 169.703868 189.090644 
L 171.882758 187.744253 
L 174.061647 186.452076 
L 176.240537 186.686781 
L 178.419426 185.975566 
L 180.598316 186.714862 
L 182.777206 190.251896 
L 184.956095 188.635504 
L 187.134985 187.03826 
L 189.313874 186.802186 
L 191.492764 189.449033 
L 193.671653 185.704704 
L 195.850543 187.12175 
L 198.029433 188.973997 
L 200.208322 190.178624 
L 202.387212 187.297048 
L 204.566101 185.408728 
L 206.744991 184.812444 
L 208.92388 185.931203 
L 211.10277 183.684273 
L 213.28166 183.602353 
L 215.460549 185.684717 
L 217.639439 188.180863 
L 219.818328 184.59507 
L 221.997218 183.453929 
L 224.176107 181.280578 
L 226.354997 183.300937 
L 228.533887 187.1829 
L 230.712776 187.957806 
L 232.891666 187.859835 
L 235.070555 188.755629 
L 237.249445 187.35153 
L 239.428334 185.919482 
L 241.607224 186.628598 
L 243.786113 185.244612 
L 245.965003 188.131401 
L 248.143893 188.164068 
L 250.322782 186.854732 
L 252.501672 185.975448 
L 254.680561 187.953027 
L 256.859451 188.40495 
L 259.03834 186.687149 
L 261.21723 187.458365 
L 263.39612 188.678029 
L 265.575009 186.880503 
L 267.753899 186.510863 
L 269.932788 186.248291 
L 272.111678 186.008967 
L 274.290567 186.349931 
L 276.469457 185.764414 
L 278.648347 186.084812 
L 280.827236 187.329447 
L 283.006126 188.615751 
L 285.185015 188.872425 
L 287.363905 188.058309 
L 289.542794 188.127275 
L 291.721684 185.931203 
L 293.900574 186.57838 
L 296.079463 184.2695 
L 298.258353 183.831292 
L 300.437242 183.64577 
L 302.616132 183.432723 
L 304.795021 183.977724 
L 306.973911 184.020181 
L 309.1528 184.981617 
L 311.33169 184.712482 
L 313.51058 186.051802 
L 315.689469 185.613854 
L 317.868359 183.32686 
L 320.047248 183.778054 
L 322.226138 185.005499 
L 324.405027 186.131017 
L 326.583917 187.408321 
L 328.762807 186.437043 
L 330.941696 186.004146 
L 333.120586 186.501334 
L 335.299475 186.138977 
L 337.478365 184.923667 
L 339.657254 184.204712 
L 341.836144 184.201353 
L 344.015034 185.609245 
L 346.193923 186.63506 
L 348.372813 189.486578 
L 350.551702 188.6163 
L 352.730592 187.642938 
L 354.909481 185.216649 
L 357.088371 184.518887 
L 359.267261 185.605063 
L 361.44615 185.728634 
L 363.62504 184.108032 
L 365.803929 184.489393 
L 367.982819 187.244279 
L 370.161708 184.373519 
L 372.340598 183.119952 
L 374.519487 184.314926 
L 376.698377 184.63453 
L 378.877267 184.462848 
L 381.056156 184.629157 
L 383.235046 186.942284 
L 385.413935 186.961875 
L 387.592825 185.322726 
L 389.771714 185.426542 
L 391.950604 184.119693 
L 394.129494 184.812444 
L 396.308383 183.683872 
L 398.487273 183.636624 
L 398.487273 173.225328 
L 398.487273 173.225328 
L 396.308383 175.129568 
L 394.129494 172.75914 
L 391.950604 170.613363 
L 389.771714 173.032082 
L 387.592825 172.603674 
L 385.413935 172.561197 
L 383.235046 172.225972 
L 381.056156 173.297243 
L 378.877267 173.108736 
L 376.698377 173.646686 
L 374.519487 173.611474 
L 372.340598 173.564592 
L 370.161708 171.778801 
L 367.982819 173.520649 
L 365.803929 173.791823 
L 363.62504 173.995776 
L 361.44615 172.552582 
L 359.267261 173.385785 
L 357.088371 173.230105 
L 354.909481 174.483831 
L 352.730592 175.78311 
L 350.551702 176.051604 
L 348.372813 177.132814 
L 346.193923 177.145804 
L 344.015034 177.461987 
L 341.836144 175.676535 
L 339.657254 175.31836 
L 337.478365 173.534957 
L 335.299475 173.384095 
L 333.120586 172.666922 
L 330.941696 172.986702 
L 328.762807 172.553805 
L 326.583917 172.292159 
L 324.405027 171.972791 
L 322.226138 172.920901 
L 320.047248 173.616122 
L 317.868359 174.59954 
L 315.689469 174.61885 
L 313.51058 173.826086 
L 311.33169 173.746142 
L 309.1528 173.299599 
L 306.973911 174.793259 
L 304.795021 173.239044 
L 302.616132 171.477741 
L 300.437242 172.329142 
L 298.258353 171.25658 
L 296.079463 170.463556 
L 293.900574 170.106164 
L 291.721684 173.059645 
L 289.542794 170.686165 
L 287.363905 170.045499 
L 285.185015 170.473239 
L 283.006126 171.616953 
L 280.827236 172.725849 
L 278.648347 173.615668 
L 276.469457 173.58125 
L 274.290567 171.753877 
L 272.111678 171.740025 
L 269.932788 172.387741 
L 267.753899 171.415537 
L 265.575009 171.223305 
L 263.39612 171.732083 
L 261.21723 172.064707 
L 259.03834 171.416659 
L 256.859451 171.472938 
L 254.680561 172.811901 
L 252.501672 174.079848 
L 250.322782 174.265012 
L 248.143893 175.26198 
L 245.965003 174.939831 
L 243.786113 173.39142 
L 241.607224 173.781514 
L 239.428334 173.248774 
L 237.249445 174.12303 
L 235.070555 173.428563 
L 232.891666 173.437317 
L 230.712776 172.629714 
L 228.533887 170.033868 
L 226.354997 169.835447 
L 224.176107 172.742846 
L 221.997218 173.762839 
L 219.818328 172.799106 
L 217.639439 171.519617 
L 215.460549 171.532051 
L 213.28166 172.904783 
L 211.10277 173.709903 
L 208.92388 173.059645 
L 206.744991 172.75914 
L 204.566101 173.58212 
L 202.387212 172.758248 
L 200.208322 173.070016 
L 198.029433 173.565011 
L 195.850543 172.933546 
L 193.671653 174.350592 
L 191.492764 174.331831 
L 189.313874 173.430518 
L 187.134985 173.904076 
L 184.956095 173.193872 
L 182.777206 172.996744 
L 180.598316 172.275986 
L 178.419426 171.063794 
L 176.240537 173.013699 
L 174.061647 173.070996 
L 171.882758 175.504387 
L 169.703868 176.641708 
L 167.524979 175.696359 
L 165.346089 176.482715 
L 163.1672 174.850075 
L 160.98831 174.982457 
L 158.80942 174.533298 
L 156.630531 173.743177 
L 154.451641 173.737404 
L 152.272752 175.060224 
L 150.093862 176.913812 
L 147.914973 175.400276 
L 145.736083 174.442177 
L 143.557193 174.098664 
L 141.378304 173.978696 
L 139.199414 177.528748 
L 137.020525 176.494049 
L 134.841635 177.066626 
L 132.662746 174.744645 
L 130.483856 173.594729 
L 128.304966 173.227841 
L 126.126077 174.623495 
L 123.947187 175.605284 
L 121.768298 176.696748 
L 119.589408 176.638044 
L 117.410519 177.052488 
L 115.231629 177.667528 
L 113.052739 180.211755 
L 110.87385 180.682514 
L 108.69496 180.190878 
L 106.516071 177.953215 
L 104.337181 184.83907 
L 102.158292 186.223503 
L 99.979402 181.267511 
L 97.800513 183.331059 
L 95.621623 181.859819 
L 93.442733 187.4495 
L 91.263844 187.753771 
L 89.084954 192.894539 
L 86.906065 191.978124 
L 84.727175 203.434759 
L 82.548286 208.09674 
L 80.369396 227.732668 
L 78.190506 278.89729 
L 76.011617 426.570532 
L 73.832727 1372.032 
z
" style="fill:#ff7f0e;fill-opacity:0.4;"/>
   </g>
   <g id="PolyCollection_3">
    <path clip-path="url(#p215e4ccfd7)" d="M 73.832727 1372.032 
L 73.832727 1372.032 
L 76.011617 708.220793 
L 78.190506 386.877812 
L 80.369396 294.305015 
L 82.548286 258.226219 
L 84.727175 236.415981 
L 86.906065 222.250912 
L 89.084954 216.959943 
L 91.263844 210.540931 
L 93.442733 210.029297 
L 95.621623 202.200952 
L 97.800513 198.519886 
L 99.979402 196.429869 
L 102.158292 197.4643 
L 104.337181 190.971183 
L 106.516071 188.872078 
L 108.69496 184.55922 
L 110.87385 179.968745 
L 113.052739 179.350109 
L 115.231629 176.67533 
L 117.410519 176.466275 
L 119.589408 175.196709 
L 121.768298 172.139494 
L 123.947187 172.08548 
L 126.126077 170.8912 
L 128.304966 171.658095 
L 130.483856 173.397436 
L 132.662746 167.844324 
L 134.841635 168.002278 
L 137.020525 167.914075 
L 139.199414 165.955693 
L 141.378304 163.743699 
L 143.557193 162.487461 
L 145.736083 161.618508 
L 147.914973 162.292222 
L 150.093862 161.383409 
L 152.272752 159.665114 
L 154.451641 160.037832 
L 156.630531 159.467382 
L 158.80942 158.252799 
L 160.98831 157.910355 
L 163.1672 158.943687 
L 165.346089 158.293015 
L 167.524979 157.814732 
L 169.703868 157.742966 
L 171.882758 158.417364 
L 174.061647 156.773337 
L 176.240537 155.079036 
L 178.419426 155.555821 
L 180.598316 156.060801 
L 182.777206 155.965424 
L 184.956095 154.340191 
L 187.134985 154.823597 
L 189.313874 153.301161 
L 191.492764 154.491395 
L 193.671653 154.192096 
L 195.850543 154.109817 
L 198.029433 153.096421 
L 200.208322 153.588849 
L 202.387212 155.103077 
L 204.566101 154.627083 
L 206.744991 153.759179 
L 208.92388 153.639777 
L 211.10277 153.561013 
L 213.28166 153.146959 
L 215.460549 153.287449 
L 217.639439 152.338164 
L 219.818328 152.220923 
L 221.997218 152.393204 
L 224.176107 152.18935 
L 226.354997 151.690202 
L 228.533887 150.441956 
L 230.712776 151.279553 
L 232.891666 151.565087 
L 235.070555 151.755709 
L 237.249445 152.104126 
L 239.428334 151.792171 
L 241.607224 151.861985 
L 243.786113 151.68366 
L 245.965003 151.287934 
L 248.143893 151.565639 
L 250.322782 150.604549 
L 252.501672 151.695512 
L 254.680561 150.379784 
L 256.859451 151.287882 
L 259.03834 150.173148 
L 261.21723 150.254557 
L 263.39612 151.465962 
L 265.575009 150.54351 
L 267.753899 150.503715 
L 269.932788 149.724987 
L 272.111678 149.474982 
L 274.290567 149.818752 
L 276.469457 150.534573 
L 278.648347 149.186663 
L 280.827236 150.833496 
L 283.006126 150.095023 
L 285.185015 150.226329 
L 287.363905 150.185898 
L 289.542794 149.267621 
L 291.721684 150.37135 
L 293.900574 148.727894 
L 296.079463 149.150339 
L 298.258353 149.110705 
L 300.437242 149.593788 
L 302.616132 149.582453 
L 304.795021 149.78181 
L 306.973911 148.104985 
L 309.1528 148.804999 
L 311.33169 147.86337 
L 313.51058 149.079148 
L 315.689469 149.586204 
L 317.868359 150.14412 
L 320.047248 150.903704 
L 322.226138 148.79564 
L 324.405027 149.133103 
L 326.583917 149.792481 
L 328.762807 148.897111 
L 330.941696 149.522011 
L 333.120586 149.182252 
L 335.299475 148.057095 
L 337.478365 148.229342 
L 339.657254 149.314694 
L 341.836144 148.669278 
L 344.015034 150.4585 
L 346.193923 149.120548 
L 348.372813 148.546127 
L 350.551702 148.317227 
L 352.730592 149.041713 
L 354.909481 147.424221 
L 357.088371 148.626432 
L 359.267261 148.648227 
L 361.44615 147.890849 
L 363.62504 148.274109 
L 365.803929 147.967937 
L 367.982819 148.388536 
L 370.161708 148.620872 
L 372.340598 148.317295 
L 374.519487 147.418534 
L 376.698377 149.308572 
L 378.877267 148.779989 
L 381.056156 149.297778 
L 383.235046 148.72064 
L 385.413935 148.466446 
L 387.592825 147.986194 
L 389.771714 149.98596 
L 391.950604 149.168342 
L 394.129494 149.230125 
L 396.308383 147.139941 
L 398.487273 148.009767 
L 398.487273 138.776025 
L 398.487273 138.776025 
L 396.308383 138.936219 
L 394.129494 138.442707 
L 391.950604 138.327082 
L 389.771714 138.337368 
L 387.592825 138.089966 
L 385.413935 137.609714 
L 383.235046 137.118976 
L 381.056156 138.375054 
L 378.877267 138.833707 
L 376.698377 138.778212 
L 374.519487 139.248986 
L 372.340598 137.936273 
L 370.161708 139.820728 
L 367.982819 138.04244 
L 365.803929 139.231807 
L 363.62504 138.452547 
L 361.44615 139.427167 
L 359.267261 139.320285 
L 357.088371 137.804544 
L 354.909481 138.651939 
L 352.730592 138.512847 
L 350.551702 138.764245 
L 348.372813 139.481521 
L 346.193923 138.788828 
L 344.015034 138.27878 
L 341.836144 139.240098 
L 339.657254 138.535546 
L 337.478365 139.916578 
L 335.299475 139.142649 
L 333.120586 139.6733 
L 330.941696 139.274405 
L 328.762807 139.130537 
L 326.583917 139.950111 
L 324.405027 138.894545 
L 322.226138 138.995464 
L 320.047248 139.489384 
L 317.868359 138.711432 
L 315.689469 140.57034 
L 313.51058 139.658132 
L 311.33169 139.277238 
L 309.1528 139.754873 
L 306.973911 139.981799 
L 304.795021 139.960782 
L 302.616132 140.337547 
L 300.437242 140.326212 
L 298.258353 139.094351 
L 296.079463 138.226813 
L 293.900574 140.423338 
L 291.721684 139.607786 
L 289.542794 139.883611 
L 287.363905 139.32015 
L 285.185015 140.462439 
L 283.006126 139.765841 
L 280.827236 139.973544 
L 278.648347 138.545305 
L 276.469457 139.444563 
L 274.290567 140.337792 
L 272.111678 141.15465 
L 269.932788 140.668101 
L 267.753899 140.539869 
L 265.575009 140.618346 
L 263.39612 140.996886 
L 261.21723 141.439523 
L 259.03834 141.40266 
L 256.859451 140.701878 
L 254.680561 141.964792 
L 252.501672 142.364008 
L 250.322782 141.385211 
L 248.143893 141.843385 
L 245.965003 142.12109 
L 243.786113 141.902772 
L 241.607224 142.788895 
L 239.428334 144.218837 
L 237.249445 142.546754 
L 235.070555 142.540355 
L 232.891666 142.139617 
L 230.712776 142.543423 
L 228.533887 142.553116 
L 226.354997 143.96599 
L 224.176107 143.64425 
L 221.997218 143.440396 
L 219.818328 143.494405 
L 217.639439 144.264204 
L 215.460549 145.148135 
L 213.28166 145.643441 
L 211.10277 145.288523 
L 208.92388 145.978527 
L 206.744991 145.090357 
L 204.566101 144.577269 
L 202.387212 144.633499 
L 200.208322 145.911183 
L 198.029433 145.220891 
L 195.850543 145.094535 
L 193.671653 145.54448 
L 191.492764 146.487037 
L 189.313874 147.440727 
L 187.134985 147.041875 
L 184.956095 145.632929 
L 182.777206 147.969808 
L 180.598316 146.691711 
L 178.419426 148.202003 
L 176.240537 147.850884 
L 174.061647 148.462887 
L 171.882758 147.942444 
L 169.703868 148.616842 
L 167.524979 149.136436 
L 165.346089 148.953833 
L 163.1672 147.889209 
L 160.98831 149.750445 
L 158.80942 147.338241 
L 156.630531 149.908362 
L 154.451641 150.579768 
L 152.272752 149.41495 
L 150.093862 149.884687 
L 147.914973 150.572546 
L 145.736083 151.83762 
L 143.557193 151.914843 
L 141.378304 153.378861 
L 139.199414 151.462547 
L 137.020525 152.874917 
L 134.841635 153.200666 
L 132.662746 154.482204 
L 130.483856 153.364292 
L 128.304966 154.748817 
L 126.126077 157.289792 
L 123.947187 158.460952 
L 121.768298 158.82089 
L 119.589408 163.273947 
L 117.410519 163.246237 
L 115.231629 164.515582 
L 113.052739 165.152419 
L 110.87385 164.947735 
L 108.69496 165.738636 
L 106.516071 168.699506 
L 104.337181 167.132625 
L 102.158292 168.563732 
L 99.979402 171.253971 
L 97.800513 177.147314 
L 95.621623 180.148616 
L 93.442733 183.378703 
L 91.263844 190.968701 
L 89.084954 194.898489 
L 86.906065 200.370272 
L 84.727175 211.692819 
L 82.548286 229.089749 
L 80.369396 255.517705 
L 78.190506 333.256588 
L 76.011617 565.544839 
L 73.832727 1372.032 
z
" style="fill:#2ca02c;fill-opacity:0.4;"/>
   </g>
   <g id="matplotlib.axis_1">
    <g id="xtick_1">
     <g id="line2d_1">
      <defs>
       <path d="M 0 0 
L 0 3.5 
" id="m25c96e62b4" style="stroke:#000000;stroke-width:0.8;"/>
      </defs>
      <g>
       <use style="stroke:#000000;stroke-width:0.8;" x="73.832727" xlink:href="#m25c96e62b4" y="307.584"/>
      </g>
     </g>
     <g id="text_1">
      <!-- 0 -->
      <defs>
       <path d="M 31.78125 66.40625 
Q 24.171875 66.40625 20.328125 58.90625 
Q 16.5 51.421875 16.5 36.375 
Q 16.5 21.390625 20.328125 13.890625 
Q 24.171875 6.390625 31.78125 6.390625 
Q 39.453125 6.390625 43.28125 13.890625 
Q 47.125 21.390625 47.125 36.375 
Q 47.125 51.421875 43.28125 58.90625 
Q 39.453125 66.40625 31.78125 66.40625 
z
M 31.78125 74.21875 
Q 44.046875 74.21875 50.515625 64.515625 
Q 56.984375 54.828125 56.984375 36.375 
Q 56.984375 17.96875 50.515625 8.265625 
Q 44.046875 -1.421875 31.78125 -1.421875 
Q 19.53125 -1.421875 13.0625 8.265625 
Q 6.59375 17.96875 6.59375 36.375 
Q 6.59375 54.828125 13.0625 64.515625 
Q 19.53125 74.21875 31.78125 74.21875 
z
" id="DejaVuSans-48"/>
      </defs>
      <g transform="translate(70.651477 322.182437)scale(0.1 -0.1)">
       <use xlink:href="#DejaVuSans-48"/>
      </g>
     </g>
    </g>
    <g id="xtick_2">
     <g id="line2d_2">
      <g>
       <use style="stroke:#000000;stroke-width:0.8;" x="117.410519" xlink:href="#m25c96e62b4" y="307.584"/>
      </g>
     </g>
     <g id="text_2">
      <!-- 20 -->
      <defs>
       <path d="M 19.1875 8.296875 
L 53.609375 8.296875 
L 53.609375 0 
L 7.328125 0 
L 7.328125 8.296875 
Q 12.9375 14.109375 22.625 23.890625 
Q 32.328125 33.6875 34.8125 36.53125 
Q 39.546875 41.84375 41.421875 45.53125 
Q 43.3125 49.21875 43.3125 52.78125 
Q 43.3125 58.59375 39.234375 62.25 
Q 35.15625 65.921875 28.609375 65.921875 
Q 23.96875 65.921875 18.8125 64.3125 
Q 13.671875 62.703125 7.8125 59.421875 
L 7.8125 69.390625 
Q 13.765625 71.78125 18.9375 73 
Q 24.125 74.21875 28.421875 74.21875 
Q 39.75 74.21875 46.484375 68.546875 
Q 53.21875 62.890625 53.21875 53.421875 
Q 53.21875 48.921875 51.53125 44.890625 
Q 49.859375 40.875 45.40625 35.40625 
Q 44.1875 33.984375 37.640625 27.21875 
Q 31.109375 20.453125 19.1875 8.296875 
z
" id="DejaVuSans-50"/>
      </defs>
      <g transform="translate(111.048019 322.182437)scale(0.1 -0.1)">
       <use xlink:href="#DejaVuSans-50"/>
       <use x="63.623047" xlink:href="#DejaVuSans-48"/>
      </g>
     </g>
    </g>
    <g id="xtick_3">
     <g id="line2d_3">
      <g>
       <use style="stroke:#000000;stroke-width:0.8;" x="160.98831" xlink:href="#m25c96e62b4" y="307.584"/>
      </g>
     </g>
     <g id="text_3">
      <!-- 40 -->
      <defs>
       <path d="M 37.796875 64.3125 
L 12.890625 25.390625 
L 37.796875 25.390625 
z
M 35.203125 72.90625 
L 47.609375 72.90625 
L 47.609375 25.390625 
L 58.015625 25.390625 
L 58.015625 17.1875 
L 47.609375 17.1875 
L 47.609375 0 
L 37.796875 0 
L 37.796875 17.1875 
L 4.890625 17.1875 
L 4.890625 26.703125 
z
" id="DejaVuSans-52"/>
      </defs>
      <g transform="translate(154.62581 322.182437)scale(0.1 -0.1)">
       <use xlink:href="#DejaVuSans-52"/>
       <use x="63.623047" xlink:href="#DejaVuSans-48"/>
      </g>
     </g>
    </g>
    <g id="xtick_4">
     <g id="line2d_4">
      <g>
       <use style="stroke:#000000;stroke-width:0.8;" x="204.566101" xlink:href="#m25c96e62b4" y="307.584"/>
      </g>
     </g>
     <g id="text_4">
      <!-- 60 -->
      <defs>
       <path d="M 33.015625 40.375 
Q 26.375 40.375 22.484375 35.828125 
Q 18.609375 31.296875 18.609375 23.390625 
Q 18.609375 15.53125 22.484375 10.953125 
Q 26.375 6.390625 33.015625 6.390625 
Q 39.65625 6.390625 43.53125 10.953125 
Q 47.40625 15.53125 47.40625 23.390625 
Q 47.40625 31.296875 43.53125 35.828125 
Q 39.65625 40.375 33.015625 40.375 
z
M 52.59375 71.296875 
L 52.59375 62.3125 
Q 48.875 64.0625 45.09375 64.984375 
Q 41.3125 65.921875 37.59375 65.921875 
Q 27.828125 65.921875 22.671875 59.328125 
Q 17.53125 52.734375 16.796875 39.40625 
Q 19.671875 43.65625 24.015625 45.921875 
Q 28.375 48.1875 33.59375 48.1875 
Q 44.578125 48.1875 50.953125 41.515625 
Q 57.328125 34.859375 57.328125 23.390625 
Q 57.328125 12.15625 50.6875 5.359375 
Q 44.046875 -1.421875 33.015625 -1.421875 
Q 20.359375 -1.421875 13.671875 8.265625 
Q 6.984375 17.96875 6.984375 36.375 
Q 6.984375 53.65625 15.1875 63.9375 
Q 23.390625 74.21875 37.203125 74.21875 
Q 40.921875 74.21875 44.703125 73.484375 
Q 48.484375 72.75 52.59375 71.296875 
z
" id="DejaVuSans-54"/>
      </defs>
      <g transform="translate(198.203601 322.182437)scale(0.1 -0.1)">
       <use xlink:href="#DejaVuSans-54"/>
       <use x="63.623047" xlink:href="#DejaVuSans-48"/>
      </g>
     </g>
    </g>
    <g id="xtick_5">
     <g id="line2d_5">
      <g>
       <use style="stroke:#000000;stroke-width:0.8;" x="248.143893" xlink:href="#m25c96e62b4" y="307.584"/>
      </g>
     </g>
     <g id="text_5">
      <!-- 80 -->
      <defs>
       <path d="M 31.78125 34.625 
Q 24.75 34.625 20.71875 30.859375 
Q 16.703125 27.09375 16.703125 20.515625 
Q 16.703125 13.921875 20.71875 10.15625 
Q 24.75 6.390625 31.78125 6.390625 
Q 38.8125 6.390625 42.859375 10.171875 
Q 46.921875 13.96875 46.921875 20.515625 
Q 46.921875 27.09375 42.890625 30.859375 
Q 38.875 34.625 31.78125 34.625 
z
M 21.921875 38.8125 
Q 15.578125 40.375 12.03125 44.71875 
Q 8.5 49.078125 8.5 55.328125 
Q 8.5 64.0625 14.71875 69.140625 
Q 20.953125 74.21875 31.78125 74.21875 
Q 42.671875 74.21875 48.875 69.140625 
Q 55.078125 64.0625 55.078125 55.328125 
Q 55.078125 49.078125 51.53125 44.71875 
Q 48 40.375 41.703125 38.8125 
Q 48.828125 37.15625 52.796875 32.3125 
Q 56.78125 27.484375 56.78125 20.515625 
Q 56.78125 9.90625 50.3125 4.234375 
Q 43.84375 -1.421875 31.78125 -1.421875 
Q 19.734375 -1.421875 13.25 4.234375 
Q 6.78125 9.90625 6.78125 20.515625 
Q 6.78125 27.484375 10.78125 32.3125 
Q 14.796875 37.15625 21.921875 38.8125 
z
M 18.3125 54.390625 
Q 18.3125 48.734375 21.84375 45.5625 
Q 25.390625 42.390625 31.78125 42.390625 
Q 38.140625 42.390625 41.71875 45.5625 
Q 45.3125 48.734375 45.3125 54.390625 
Q 45.3125 60.0625 41.71875 63.234375 
Q 38.140625 66.40625 31.78125 66.40625 
Q 25.390625 66.40625 21.84375 63.234375 
Q 18.3125 60.0625 18.3125 54.390625 
z
" id="DejaVuSans-56"/>
      </defs>
      <g transform="translate(241.781393 322.182437)scale(0.1 -0.1)">
       <use xlink:href="#DejaVuSans-56"/>
       <use x="63.623047" xlink:href="#DejaVuSans-48"/>
      </g>
     </g>
    </g>
    <g id="xtick_6">
     <g id="line2d_6">
      <g>
       <use style="stroke:#000000;stroke-width:0.8;" x="291.721684" xlink:href="#m25c96e62b4" y="307.584"/>
      </g>
     </g>
     <g id="text_6">
      <!-- 100 -->
      <defs>
       <path d="M 12.40625 8.296875 
L 28.515625 8.296875 
L 28.515625 63.921875 
L 10.984375 60.40625 
L 10.984375 69.390625 
L 28.421875 72.90625 
L 38.28125 72.90625 
L 38.28125 8.296875 
L 54.390625 8.296875 
L 54.390625 0 
L 12.40625 0 
z
" id="DejaVuSans-49"/>
      </defs>
      <g transform="translate(282.177934 322.182437)scale(0.1 -0.1)">
       <use xlink:href="#DejaVuSans-49"/>
       <use x="63.623047" xlink:href="#DejaVuSans-48"/>
       <use x="127.246094" xlink:href="#DejaVuSans-48"/>
      </g>
     </g>
    </g>
    <g id="xtick_7">
     <g id="line2d_7">
      <g>
       <use style="stroke:#000000;stroke-width:0.8;" x="335.299475" xlink:href="#m25c96e62b4" y="307.584"/>
      </g>
     </g>
     <g id="text_7">
      <!-- 120 -->
      <g transform="translate(325.755725 322.182437)scale(0.1 -0.1)">
       <use xlink:href="#DejaVuSans-49"/>
       <use x="63.623047" xlink:href="#DejaVuSans-50"/>
       <use x="127.246094" xlink:href="#DejaVuSans-48"/>
      </g>
     </g>
    </g>
    <g id="xtick_8">
     <g id="line2d_8">
      <g>
       <use style="stroke:#000000;stroke-width:0.8;" x="378.877267" xlink:href="#m25c96e62b4" y="307.584"/>
      </g>
     </g>
     <g id="text_8">
      <!-- 140 -->
      <g transform="translate(369.333517 322.182437)scale(0.1 -0.1)">
       <use xlink:href="#DejaVuSans-49"/>
       <use x="63.623047" xlink:href="#DejaVuSans-52"/>
       <use x="127.246094" xlink:href="#DejaVuSans-48"/>
      </g>
     </g>
    </g>
   </g>
   <g id="matplotlib.axis_2">
    <g id="ytick_1">
     <g id="line2d_9">
      <defs>
       <path d="M 0 0 
L -3.5 0 
" id="m1fed07a66b" style="stroke:#000000;stroke-width:0.8;"/>
      </defs>
      <g>
       <use style="stroke:#000000;stroke-width:0.8;" x="57.6" xlink:href="#m1fed07a66b" y="307.584"/>
      </g>
     </g>
     <g id="text_9">
      <!-- 0.800 -->
      <defs>
       <path d="M 10.6875 12.40625 
L 21 12.40625 
L 21 0 
L 10.6875 0 
z
" id="DejaVuSans-46"/>
      </defs>
      <g transform="translate(21.971875 311.383219)scale(0.1 -0.1)">
       <use xlink:href="#DejaVuSans-48"/>
       <use x="63.623047" xlink:href="#DejaVuSans-46"/>
       <use x="95.410156" xlink:href="#DejaVuSans-56"/>
       <use x="159.033203" xlink:href="#DejaVuSans-48"/>
       <use x="222.65625" xlink:href="#DejaVuSans-48"/>
      </g>
     </g>
    </g>
    <g id="ytick_2">
     <g id="line2d_10">
      <g>
       <use style="stroke:#000000;stroke-width:0.8;" x="57.6" xlink:href="#m1fed07a66b" y="274.32"/>
      </g>
     </g>
     <g id="text_10">
      <!-- 0.825 -->
      <defs>
       <path d="M 10.796875 72.90625 
L 49.515625 72.90625 
L 49.515625 64.59375 
L 19.828125 64.59375 
L 19.828125 46.734375 
Q 21.96875 47.46875 24.109375 47.828125 
Q 26.265625 48.1875 28.421875 48.1875 
Q 40.625 48.1875 47.75 41.5 
Q 54.890625 34.8125 54.890625 23.390625 
Q 54.890625 11.625 47.5625 5.09375 
Q 40.234375 -1.421875 26.90625 -1.421875 
Q 22.3125 -1.421875 17.546875 -0.640625 
Q 12.796875 0.140625 7.71875 1.703125 
L 7.71875 11.625 
Q 12.109375 9.234375 16.796875 8.0625 
Q 21.484375 6.890625 26.703125 6.890625 
Q 35.15625 6.890625 40.078125 11.328125 
Q 45.015625 15.765625 45.015625 23.390625 
Q 45.015625 31 40.078125 35.4375 
Q 35.15625 39.890625 26.703125 39.890625 
Q 22.75 39.890625 18.8125 39.015625 
Q 14.890625 38.140625 10.796875 36.28125 
z
" id="DejaVuSans-53"/>
      </defs>
      <g transform="translate(21.971875 278.119219)scale(0.1 -0.1)">
       <use xlink:href="#DejaVuSans-48"/>
       <use x="63.623047" xlink:href="#DejaVuSans-46"/>
       <use x="95.410156" xlink:href="#DejaVuSans-56"/>
       <use x="159.033203" xlink:href="#DejaVuSans-50"/>
       <use x="222.65625" xlink:href="#DejaVuSans-53"/>
      </g>
     </g>
    </g>
    <g id="ytick_3">
     <g id="line2d_11">
      <g>
       <use style="stroke:#000000;stroke-width:0.8;" x="57.6" xlink:href="#m1fed07a66b" y="241.056"/>
      </g>
     </g>
     <g id="text_11">
      <!-- 0.850 -->
      <g transform="translate(21.971875 244.855219)scale(0.1 -0.1)">
       <use xlink:href="#DejaVuSans-48"/>
       <use x="63.623047" xlink:href="#DejaVuSans-46"/>
       <use x="95.410156" xlink:href="#DejaVuSans-56"/>
       <use x="159.033203" xlink:href="#DejaVuSans-53"/>
       <use x="222.65625" xlink:href="#DejaVuSans-48"/>
      </g>
     </g>
    </g>
    <g id="ytick_4">
     <g id="line2d_12">
      <g>
       <use style="stroke:#000000;stroke-width:0.8;" x="57.6" xlink:href="#m1fed07a66b" y="207.792"/>
      </g>
     </g>
     <g id="text_12">
      <!-- 0.875 -->
      <defs>
       <path d="M 8.203125 72.90625 
L 55.078125 72.90625 
L 55.078125 68.703125 
L 28.609375 0 
L 18.3125 0 
L 43.21875 64.59375 
L 8.203125 64.59375 
z
" id="DejaVuSans-55"/>
      </defs>
      <g transform="translate(21.971875 211.591219)scale(0.1 -0.1)">
       <use xlink:href="#DejaVuSans-48"/>
       <use x="63.623047" xlink:href="#DejaVuSans-46"/>
       <use x="95.410156" xlink:href="#DejaVuSans-56"/>
       <use x="159.033203" xlink:href="#DejaVuSans-55"/>
       <use x="222.65625" xlink:href="#DejaVuSans-53"/>
      </g>
     </g>
    </g>
    <g id="ytick_5">
     <g id="line2d_13">
      <g>
       <use style="stroke:#000000;stroke-width:0.8;" x="57.6" xlink:href="#m1fed07a66b" y="174.528"/>
      </g>
     </g>
     <g id="text_13">
      <!-- 0.900 -->
      <defs>
       <path d="M 10.984375 1.515625 
L 10.984375 10.5 
Q 14.703125 8.734375 18.5 7.8125 
Q 22.3125 6.890625 25.984375 6.890625 
Q 35.75 6.890625 40.890625 13.453125 
Q 46.046875 20.015625 46.78125 33.40625 
Q 43.953125 29.203125 39.59375 26.953125 
Q 35.25 24.703125 29.984375 24.703125 
Q 19.046875 24.703125 12.671875 31.3125 
Q 6.296875 37.9375 6.296875 49.421875 
Q 6.296875 60.640625 12.9375 67.421875 
Q 19.578125 74.21875 30.609375 74.21875 
Q 43.265625 74.21875 49.921875 64.515625 
Q 56.59375 54.828125 56.59375 36.375 
Q 56.59375 19.140625 48.40625 8.859375 
Q 40.234375 -1.421875 26.421875 -1.421875 
Q 22.703125 -1.421875 18.890625 -0.6875 
Q 15.09375 0.046875 10.984375 1.515625 
z
M 30.609375 32.421875 
Q 37.25 32.421875 41.125 36.953125 
Q 45.015625 41.5 45.015625 49.421875 
Q 45.015625 57.28125 41.125 61.84375 
Q 37.25 66.40625 30.609375 66.40625 
Q 23.96875 66.40625 20.09375 61.84375 
Q 16.21875 57.28125 16.21875 49.421875 
Q 16.21875 41.5 20.09375 36.953125 
Q 23.96875 32.421875 30.609375 32.421875 
z
" id="DejaVuSans-57"/>
      </defs>
      <g transform="translate(21.971875 178.327219)scale(0.1 -0.1)">
       <use xlink:href="#DejaVuSans-48"/>
       <use x="63.623047" xlink:href="#DejaVuSans-46"/>
       <use x="95.410156" xlink:href="#DejaVuSans-57"/>
       <use x="159.033203" xlink:href="#DejaVuSans-48"/>
       <use x="222.65625" xlink:href="#DejaVuSans-48"/>
      </g>
     </g>
    </g>
    <g id="ytick_6">
     <g id="line2d_14">
      <g>
       <use style="stroke:#000000;stroke-width:0.8;" x="57.6" xlink:href="#m1fed07a66b" y="141.264"/>
      </g>
     </g>
     <g id="text_14">
      <!-- 0.925 -->
      <g transform="translate(21.971875 145.063219)scale(0.1 -0.1)">
       <use xlink:href="#DejaVuSans-48"/>
       <use x="63.623047" xlink:href="#DejaVuSans-46"/>
       <use x="95.410156" xlink:href="#DejaVuSans-57"/>
       <use x="159.033203" xlink:href="#DejaVuSans-50"/>
       <use x="222.65625" xlink:href="#DejaVuSans-53"/>
      </g>
     </g>
    </g>
    <g id="ytick_7">
     <g id="line2d_15">
      <g>
       <use style="stroke:#000000;stroke-width:0.8;" x="57.6" xlink:href="#m1fed07a66b" y="108"/>
      </g>
     </g>
     <g id="text_15">
      <!-- 0.950 -->
      <g transform="translate(21.971875 111.799219)scale(0.1 -0.1)">
       <use xlink:href="#DejaVuSans-48"/>
       <use x="63.623047" xlink:href="#DejaVuSans-46"/>
       <use x="95.410156" xlink:href="#DejaVuSans-57"/>
       <use x="159.033203" xlink:href="#DejaVuSans-53"/>
       <use x="222.65625" xlink:href="#DejaVuSans-48"/>
      </g>
     </g>
    </g>
    <g id="ytick_8">
     <g id="line2d_16">
      <g>
       <use style="stroke:#000000;stroke-width:0.8;" x="57.6" xlink:href="#m1fed07a66b" y="74.736"/>
      </g>
     </g>
     <g id="text_16">
      <!-- 0.975 -->
      <g transform="translate(21.971875 78.535219)scale(0.1 -0.1)">
       <use xlink:href="#DejaVuSans-48"/>
       <use x="63.623047" xlink:href="#DejaVuSans-46"/>
       <use x="95.410156" xlink:href="#DejaVuSans-57"/>
       <use x="159.033203" xlink:href="#DejaVuSans-55"/>
       <use x="222.65625" xlink:href="#DejaVuSans-53"/>
      </g>
     </g>
    </g>
    <g id="ytick_9">
     <g id="line2d_17">
      <g>
       <use style="stroke:#000000;stroke-width:0.8;" x="57.6" xlink:href="#m1fed07a66b" y="41.472"/>
      </g>
     </g>
     <g id="text_17">
      <!-- 1.000 -->
      <g transform="translate(21.971875 45.271219)scale(0.1 -0.1)">
       <use xlink:href="#DejaVuSans-49"/>
       <use x="63.623047" xlink:href="#DejaVuSans-46"/>
       <use x="95.410156" xlink:href="#DejaVuSans-48"/>
       <use x="159.033203" xlink:href="#DejaVuSans-48"/>
       <use x="222.65625" xlink:href="#DejaVuSans-48"/>
      </g>
     </g>
    </g>
   </g>
   <g id="line2d_18">
    <path clip-path="url(#p215e4ccfd7)" d="M 78.341452 346.6 
L 80.369396 274.91136 
L 82.548286 244.988544 
L 84.727175 222.457728 
L 86.906065 213.202944 
L 89.084954 206.224896 
L 91.263844 203.001984 
L 93.442733 199.51296 
L 95.621623 196.319616 
L 97.800513 194.279424 
L 99.979402 193.481088 
L 102.158292 191.470464 
L 104.337181 190.553856 
L 106.516071 190.524288 
L 108.69496 188.5728 
L 110.87385 187.922304 
L 113.052739 187.0944 
L 115.231629 184.048896 
L 117.410519 182.80704 
L 119.589408 183.575808 
L 121.768298 180.530304 
L 123.947187 179.081472 
L 130.483856 175.533312 
L 134.841635 172.546944 
L 137.020525 171.482496 
L 139.199414 171.748608 
L 141.378304 169.087488 
L 143.557193 168.643968 
L 145.736083 166.160256 
L 147.914973 166.24896 
L 150.093862 165.095808 
L 152.272752 164.297472 
L 154.451641 164.563584 
L 156.630531 163.58784 
L 158.80942 161.932032 
L 160.98831 162.641664 
L 163.1672 163.88352 
L 165.346089 161.932032 
L 167.524979 160.808448 
L 169.703868 161.429376 
L 171.882758 159.950976 
L 174.061647 159.89184 
L 176.240537 158.295168 
L 178.419426 158.11776 
L 180.598316 158.236032 
L 182.777206 156.609792 
L 187.134985 157.348992 
L 189.313874 155.841024 
L 191.492764 154.86528 
L 193.671653 155.486208 
L 195.850543 155.841024 
L 198.029433 154.480896 
L 200.208322 153.357312 
L 202.387212 154.42176 
L 204.566101 153.327744 
L 206.744991 153.475584 
L 208.92388 152.618112 
L 211.10277 153.002496 
L 213.28166 152.05632 
L 215.460549 152.972928 
L 217.639439 152.49984 
L 219.818328 151.90848 
L 221.997218 151.819776 
L 226.354997 151.31712 
L 228.533887 151.16928 
L 230.712776 151.849344 
L 232.891666 151.46496 
L 235.070555 151.287552 
L 237.249445 150.045696 
L 239.428334 150.43008 
L 241.607224 151.46496 
L 243.786113 150.637056 
L 245.965003 150.341376 
L 250.322782 150.903168 
L 252.501672 150.489216 
L 256.859451 150.370944 
L 259.03834 149.454336 
L 261.21723 149.809152 
L 263.39612 149.809152 
L 265.575009 150.28224 
L 267.753899 150.193536 
L 269.932788 149.83872 
L 272.111678 149.217792 
L 274.290567 149.069952 
L 276.469457 148.153344 
L 278.648347 149.661312 
L 280.827236 148.182912 
L 283.006126 148.271616 
L 285.185015 148.922112 
L 287.363905 149.897856 
L 289.542794 148.892544 
L 291.721684 148.123776 
L 293.900574 148.36032 
L 296.079463 149.040384 
L 298.258353 149.069952 
L 300.437242 148.478592 
L 302.616132 148.330752 
L 304.795021 148.06464 
L 309.1528 148.36032 
L 311.33169 148.744704 
L 313.51058 148.36032 
L 315.689469 148.36032 
L 317.868359 149.24736 
L 320.047248 148.537728 
L 322.226138 148.182912 
L 324.405027 148.419456 
L 328.762807 148.567296 
L 330.941696 148.005504 
L 333.120586 147.9168 
L 335.299475 147.946368 
L 337.478365 147.414144 
L 341.836144 147.414144 
L 344.015034 147.798528 
L 346.193923 147.62112 
L 350.551702 146.763648 
L 352.730592 147.532416 
L 354.909481 146.970624 
L 357.088371 145.99488 
L 359.267261 146.88192 
L 361.44615 145.728768 
L 365.803929 144.51648 
L 367.982819 146.113152 
L 370.161708 145.640064 
L 372.340598 145.314816 
L 374.519487 144.753024 
L 378.877267 145.285248 
L 381.056156 145.285248 
L 383.235046 145.166976 
L 385.413935 145.166976 
L 387.592825 144.782592 
L 389.771714 144.930432 
L 391.950604 144.605184 
L 394.129494 144.575616 
L 396.308383 145.226112 
L 398.487273 144.753024 
L 398.487273 144.753024 
" style="fill:none;stroke:#1f77b4;stroke-linecap:square;stroke-width:1.5;"/>
   </g>
   <g id="line2d_19">
    <path clip-path="url(#p215e4ccfd7)" d="M 77.741654 346.6 
L 78.190506 306.874368 
L 80.369396 245.4912 
L 82.548286 220.299264 
L 84.727175 212.2272 
L 86.906065 201.760128 
L 89.084954 200.25216 
L 91.263844 197.058816 
L 93.442733 198.211968 
L 95.621623 190.228608 
L 97.800513 192.71232 
L 99.979402 189.16416 
L 102.158292 192.091392 
L 104.337181 192.180096 
L 106.516071 185.438592 
L 108.69496 186.857856 
L 113.052739 184.906368 
L 115.231629 185.882112 
L 117.410519 186.680448 
L 119.589408 184.995072 
L 121.768298 182.600064 
L 126.126077 183.309696 
L 128.304966 181.62432 
L 130.483856 181.446912 
L 132.662746 179.938944 
L 134.841635 181.62432 
L 137.020525 181.890432 
L 139.199414 183.753216 
L 141.378304 181.358208 
L 143.557193 180.471168 
L 145.736083 181.269504 
L 147.914973 180.73728 
L 150.093862 181.62432 
L 152.272752 181.979136 
L 154.451641 181.358208 
L 156.630531 179.85024 
L 160.98831 181.092096 
L 163.1672 179.672832 
L 165.346089 181.358208 
L 169.703868 182.866176 
L 171.882758 181.62432 
L 174.061647 179.761536 
L 176.240537 179.85024 
L 178.419426 178.51968 
L 180.598316 179.495424 
L 182.777206 181.62432 
L 184.956095 180.914688 
L 189.313874 180.116352 
L 191.492764 181.890432 
L 193.671653 180.027648 
L 195.850543 180.027648 
L 198.029433 181.269504 
L 200.208322 181.62432 
L 202.387212 180.027648 
L 204.566101 179.495424 
L 206.744991 178.785792 
L 208.92388 179.495424 
L 211.10277 178.697088 
L 213.28166 178.253568 
L 215.460549 178.608384 
L 217.639439 179.85024 
L 219.818328 178.697088 
L 221.997218 178.608384 
L 224.176107 177.011712 
L 226.354997 176.568192 
L 228.533887 178.608384 
L 230.712776 180.29376 
L 235.070555 181.092096 
L 237.249445 180.73728 
L 239.428334 179.584128 
L 241.607224 180.205056 
L 243.786113 179.318016 
L 245.965003 181.535616 
L 248.143893 181.713024 
L 250.322782 180.559872 
L 252.501672 180.027648 
L 254.680561 180.382464 
L 256.859451 179.938944 
L 259.03834 179.051904 
L 261.21723 179.761536 
L 263.39612 180.205056 
L 265.575009 179.051904 
L 267.753899 178.9632 
L 269.932788 179.318016 
L 272.111678 178.874496 
L 274.290567 179.051904 
L 276.469457 179.672832 
L 283.006126 180.116352 
L 285.185015 179.672832 
L 287.363905 179.051904 
L 289.542794 179.40672 
L 291.721684 179.495424 
L 293.900574 178.342272 
L 296.079463 177.366528 
L 298.258353 177.543936 
L 300.437242 177.987456 
L 302.616132 177.455232 
L 304.795021 178.608384 
L 306.973911 179.40672 
L 309.1528 179.140608 
L 311.33169 179.229312 
L 313.51058 179.938944 
L 315.689469 180.116352 
L 317.868359 178.9632 
L 320.047248 178.697088 
L 322.226138 178.9632 
L 324.405027 179.051904 
L 326.583917 179.85024 
L 328.762807 179.495424 
L 333.120586 179.584128 
L 335.299475 179.761536 
L 337.478365 179.229312 
L 339.657254 179.761536 
L 341.836144 179.938944 
L 344.015034 181.535616 
L 346.193923 181.890432 
L 348.372813 183.309696 
L 350.551702 182.333952 
L 352.730592 181.713024 
L 354.909481 179.85024 
L 357.088371 178.874496 
L 359.267261 179.495424 
L 361.44615 179.140608 
L 363.62504 179.051904 
L 365.803929 179.140608 
L 367.982819 180.382464 
L 370.161708 178.07616 
L 372.340598 178.342272 
L 374.519487 178.9632 
L 376.698377 179.140608 
L 378.877267 178.785792 
L 381.056156 178.9632 
L 383.235046 179.584128 
L 385.413935 179.761536 
L 387.592825 178.9632 
L 389.771714 179.229312 
L 391.950604 177.366528 
L 394.129494 178.785792 
L 396.308383 179.40672 
L 398.487273 178.430976 
L 398.487273 178.430976 
" style="fill:none;stroke:#ff7f0e;stroke-linecap:square;stroke-width:1.5;"/>
   </g>
   <g id="line2d_20">
    <path clip-path="url(#p215e4ccfd7)" d="M 78.535093 346.6 
L 80.369396 274.91136 
L 82.548286 243.657984 
L 84.727175 224.0544 
L 86.906065 211.310592 
L 91.263844 200.754816 
L 93.442733 196.704 
L 95.621623 191.174784 
L 97.800513 187.8336 
L 99.979402 183.84192 
L 102.158292 183.014016 
L 104.337181 179.051904 
L 106.516071 178.785792 
L 108.69496 175.148928 
L 110.87385 172.45824 
L 113.052739 172.251264 
L 115.231629 170.595456 
L 117.410519 169.856256 
L 119.589408 169.235328 
L 121.768298 165.480192 
L 123.947187 165.273216 
L 126.126077 164.090496 
L 128.304966 163.203456 
L 130.483856 163.380864 
L 132.662746 161.163264 
L 134.841635 160.601472 
L 137.020525 160.394496 
L 139.199414 158.70912 
L 141.378304 158.56128 
L 143.557193 157.201152 
L 145.736083 156.728064 
L 147.914973 156.432384 
L 150.093862 155.634048 
L 152.272752 154.540032 
L 154.451641 155.3088 
L 156.630531 154.687872 
L 158.80942 152.79552 
L 160.98831 153.8304 
L 163.1672 153.416448 
L 165.346089 153.623424 
L 167.524979 153.475584 
L 169.703868 153.179904 
L 171.882758 153.179904 
L 174.061647 152.618112 
L 176.240537 151.46496 
L 178.419426 151.878912 
L 180.598316 151.376256 
L 182.777206 151.967616 
L 184.956095 149.98656 
L 187.134985 150.932736 
L 189.313874 150.370944 
L 191.492764 150.489216 
L 193.671653 149.868288 
L 195.850543 149.602176 
L 198.029433 149.158656 
L 200.208322 149.750016 
L 202.387212 149.868288 
L 206.744991 149.424768 
L 208.92388 149.809152 
L 211.10277 149.424768 
L 213.28166 149.3952 
L 215.460549 149.217792 
L 217.639439 148.301184 
L 219.818328 147.857664 
L 224.176107 147.9168 
L 226.354997 147.828096 
L 228.533887 146.497536 
L 230.712776 146.911488 
L 232.891666 146.852352 
L 235.070555 147.148032 
L 237.249445 147.32544 
L 239.428334 148.005504 
L 241.607224 147.32544 
L 243.786113 146.793216 
L 248.143893 146.704512 
L 250.322782 145.99488 
L 252.501672 147.02976 
L 254.680561 146.172288 
L 259.03834 145.787904 
L 261.21723 145.84704 
L 263.39612 146.231424 
L 265.575009 145.580928 
L 267.753899 145.521792 
L 269.932788 145.196544 
L 272.111678 145.314816 
L 274.290567 145.078272 
L 276.469457 144.989568 
L 278.648347 143.865984 
L 280.827236 145.40352 
L 283.006126 144.930432 
L 285.185015 145.344384 
L 287.363905 144.753024 
L 289.542794 144.575616 
L 291.721684 144.989568 
L 293.900574 144.575616 
L 296.079463 143.688576 
L 298.258353 144.102528 
L 300.437242 144.96 
L 304.795021 144.871296 
L 306.973911 144.043392 
L 309.1528 144.279936 
L 311.33169 143.570304 
L 315.689469 145.078272 
L 317.868359 144.427776 
L 320.047248 145.196544 
L 322.226138 143.895552 
L 324.405027 144.013824 
L 326.583917 144.871296 
L 328.762807 144.013824 
L 330.941696 144.398208 
L 333.120586 144.427776 
L 335.299475 143.599872 
L 337.478365 144.07296 
L 339.657254 143.92512 
L 341.836144 143.954688 
L 344.015034 144.36864 
L 346.193923 143.954688 
L 348.372813 144.013824 
L 350.551702 143.540736 
L 352.730592 143.77728 
L 354.909481 143.03808 
L 357.088371 143.215488 
L 359.267261 143.984256 
L 363.62504 143.363328 
L 365.803929 143.599872 
L 367.982819 143.215488 
L 370.161708 144.2208 
L 372.340598 143.126784 
L 374.519487 143.33376 
L 376.698377 144.043392 
L 378.877267 143.806848 
L 381.056156 143.836416 
L 383.235046 142.919808 
L 385.413935 143.03808 
L 387.592825 143.03808 
L 389.771714 144.161664 
L 391.950604 143.747712 
L 394.129494 143.836416 
L 396.308383 143.03808 
L 398.487273 143.392896 
L 398.487273 143.392896 
" style="fill:none;stroke:#2ca02c;stroke-linecap:square;stroke-width:1.5;"/>
   </g>
   <g id="patch_3">
    <path d="M 57.6 307.584 
L 57.6 41.472 
" style="fill:none;stroke:#000000;stroke-linecap:square;stroke-linejoin:miter;stroke-width:0.8;"/>
   </g>
   <g id="patch_4">
    <path d="M 414.72 307.584 
L 414.72 41.472 
" style="fill:none;stroke:#000000;stroke-linecap:square;stroke-linejoin:miter;stroke-width:0.8;"/>
   </g>
   <g id="patch_5">
    <path d="M 57.6 307.584 
L 414.72 307.584 
" style="fill:none;stroke:#000000;stroke-linecap:square;stroke-linejoin:miter;stroke-width:0.8;"/>
   </g>
   <g id="patch_6">
    <path d="M 57.6 41.472 
L 414.72 41.472 
" style="fill:none;stroke:#000000;stroke-linecap:square;stroke-linejoin:miter;stroke-width:0.8;"/>
   </g>
   <g id="legend_1">
    <g id="patch_7">
     <path d="M 255.41375 93.506375 
L 407.72 93.506375 
Q 409.72 93.506375 409.72 91.506375 
L 409.72 48.472 
Q 409.72 46.472 407.72 46.472 
L 255.41375 46.472 
Q 253.41375 46.472 253.41375 48.472 
L 253.41375 91.506375 
Q 253.41375 93.506375 255.41375 93.506375 
z
" style="fill:#ffffff;opacity:0.8;stroke:#cccccc;stroke-linejoin:miter;"/>
    </g>
    <g id="line2d_21">
     <path d="M 257.41375 54.570438 
L 277.41375 54.570438 
" style="fill:none;stroke:#1f77b4;stroke-linecap:square;stroke-width:1.5;"/>
    </g>
    <g id="line2d_22"/>
    <g id="text_18">
     <!-- manually set thresholds -->
     <defs>
      <path d="M 52 44.1875 
Q 55.375 50.25 60.0625 53.125 
Q 64.75 56 71.09375 56 
Q 79.640625 56 84.28125 50.015625 
Q 88.921875 44.046875 88.921875 33.015625 
L 88.921875 0 
L 79.890625 0 
L 79.890625 32.71875 
Q 79.890625 40.578125 77.09375 44.375 
Q 74.3125 48.1875 68.609375 48.1875 
Q 61.625 48.1875 57.5625 43.546875 
Q 53.515625 38.921875 53.515625 30.90625 
L 53.515625 0 
L 44.484375 0 
L 44.484375 32.71875 
Q 44.484375 40.625 41.703125 44.40625 
Q 38.921875 48.1875 33.109375 48.1875 
Q 26.21875 48.1875 22.15625 43.53125 
Q 18.109375 38.875 18.109375 30.90625 
L 18.109375 0 
L 9.078125 0 
L 9.078125 54.6875 
L 18.109375 54.6875 
L 18.109375 46.1875 
Q 21.1875 51.21875 25.484375 53.609375 
Q 29.78125 56 35.6875 56 
Q 41.65625 56 45.828125 52.96875 
Q 50 49.953125 52 44.1875 
z
" id="DejaVuSans-109"/>
      <path d="M 34.28125 27.484375 
Q 23.390625 27.484375 19.1875 25 
Q 14.984375 22.515625 14.984375 16.5 
Q 14.984375 11.71875 18.140625 8.90625 
Q 21.296875 6.109375 26.703125 6.109375 
Q 34.1875 6.109375 38.703125 11.40625 
Q 43.21875 16.703125 43.21875 25.484375 
L 43.21875 27.484375 
z
M 52.203125 31.203125 
L 52.203125 0 
L 43.21875 0 
L 43.21875 8.296875 
Q 40.140625 3.328125 35.546875 0.953125 
Q 30.953125 -1.421875 24.3125 -1.421875 
Q 15.921875 -1.421875 10.953125 3.296875 
Q 6 8.015625 6 15.921875 
Q 6 25.140625 12.171875 29.828125 
Q 18.359375 34.515625 30.609375 34.515625 
L 43.21875 34.515625 
L 43.21875 35.40625 
Q 43.21875 41.609375 39.140625 45 
Q 35.0625 48.390625 27.6875 48.390625 
Q 23 48.390625 18.546875 47.265625 
Q 14.109375 46.140625 10.015625 43.890625 
L 10.015625 52.203125 
Q 14.9375 54.109375 19.578125 55.046875 
Q 24.21875 56 28.609375 56 
Q 40.484375 56 46.34375 49.84375 
Q 52.203125 43.703125 52.203125 31.203125 
z
" id="DejaVuSans-97"/>
      <path d="M 54.890625 33.015625 
L 54.890625 0 
L 45.90625 0 
L 45.90625 32.71875 
Q 45.90625 40.484375 42.875 44.328125 
Q 39.84375 48.1875 33.796875 48.1875 
Q 26.515625 48.1875 22.3125 43.546875 
Q 18.109375 38.921875 18.109375 30.90625 
L 18.109375 0 
L 9.078125 0 
L 9.078125 54.6875 
L 18.109375 54.6875 
L 18.109375 46.1875 
Q 21.34375 51.125 25.703125 53.5625 
Q 30.078125 56 35.796875 56 
Q 45.21875 56 50.046875 50.171875 
Q 54.890625 44.34375 54.890625 33.015625 
z
" id="DejaVuSans-110"/>
      <path d="M 8.5 21.578125 
L 8.5 54.6875 
L 17.484375 54.6875 
L 17.484375 21.921875 
Q 17.484375 14.15625 20.5 10.265625 
Q 23.53125 6.390625 29.59375 6.390625 
Q 36.859375 6.390625 41.078125 11.03125 
Q 45.3125 15.671875 45.3125 23.6875 
L 45.3125 54.6875 
L 54.296875 54.6875 
L 54.296875 0 
L 45.3125 0 
L 45.3125 8.40625 
Q 42.046875 3.421875 37.71875 1 
Q 33.40625 -1.421875 27.6875 -1.421875 
Q 18.265625 -1.421875 13.375 4.4375 
Q 8.5 10.296875 8.5 21.578125 
z
M 31.109375 56 
z
" id="DejaVuSans-117"/>
      <path d="M 9.421875 75.984375 
L 18.40625 75.984375 
L 18.40625 0 
L 9.421875 0 
z
" id="DejaVuSans-108"/>
      <path d="M 32.171875 -5.078125 
Q 28.375 -14.84375 24.75 -17.8125 
Q 21.140625 -20.796875 15.09375 -20.796875 
L 7.90625 -20.796875 
L 7.90625 -13.28125 
L 13.1875 -13.28125 
Q 16.890625 -13.28125 18.9375 -11.515625 
Q 21 -9.765625 23.484375 -3.21875 
L 25.09375 0.875 
L 2.984375 54.6875 
L 12.5 54.6875 
L 29.59375 11.921875 
L 46.6875 54.6875 
L 56.203125 54.6875 
z
" id="DejaVuSans-121"/>
      <path id="DejaVuSans-32"/>
      <path d="M 44.28125 53.078125 
L 44.28125 44.578125 
Q 40.484375 46.53125 36.375 47.5 
Q 32.28125 48.484375 27.875 48.484375 
Q 21.1875 48.484375 17.84375 46.4375 
Q 14.5 44.390625 14.5 40.28125 
Q 14.5 37.15625 16.890625 35.375 
Q 19.28125 33.59375 26.515625 31.984375 
L 29.59375 31.296875 
Q 39.15625 29.25 43.1875 25.515625 
Q 47.21875 21.78125 47.21875 15.09375 
Q 47.21875 7.46875 41.1875 3.015625 
Q 35.15625 -1.421875 24.609375 -1.421875 
Q 20.21875 -1.421875 15.453125 -0.5625 
Q 10.6875 0.296875 5.421875 2 
L 5.421875 11.28125 
Q 10.40625 8.6875 15.234375 7.390625 
Q 20.0625 6.109375 24.8125 6.109375 
Q 31.15625 6.109375 34.5625 8.28125 
Q 37.984375 10.453125 37.984375 14.40625 
Q 37.984375 18.0625 35.515625 20.015625 
Q 33.0625 21.96875 24.703125 23.78125 
L 21.578125 24.515625 
Q 13.234375 26.265625 9.515625 29.90625 
Q 5.8125 33.546875 5.8125 39.890625 
Q 5.8125 47.609375 11.28125 51.796875 
Q 16.75 56 26.8125 56 
Q 31.78125 56 36.171875 55.265625 
Q 40.578125 54.546875 44.28125 53.078125 
z
" id="DejaVuSans-115"/>
      <path d="M 56.203125 29.59375 
L 56.203125 25.203125 
L 14.890625 25.203125 
Q 15.484375 15.921875 20.484375 11.0625 
Q 25.484375 6.203125 34.421875 6.203125 
Q 39.59375 6.203125 44.453125 7.46875 
Q 49.3125 8.734375 54.109375 11.28125 
L 54.109375 2.78125 
Q 49.265625 0.734375 44.1875 -0.34375 
Q 39.109375 -1.421875 33.890625 -1.421875 
Q 20.796875 -1.421875 13.15625 6.1875 
Q 5.515625 13.8125 5.515625 26.8125 
Q 5.515625 40.234375 12.765625 48.109375 
Q 20.015625 56 32.328125 56 
Q 43.359375 56 49.78125 48.890625 
Q 56.203125 41.796875 56.203125 29.59375 
z
M 47.21875 32.234375 
Q 47.125 39.59375 43.09375 43.984375 
Q 39.0625 48.390625 32.421875 48.390625 
Q 24.90625 48.390625 20.390625 44.140625 
Q 15.875 39.890625 15.1875 32.171875 
z
" id="DejaVuSans-101"/>
      <path d="M 18.3125 70.21875 
L 18.3125 54.6875 
L 36.8125 54.6875 
L 36.8125 47.703125 
L 18.3125 47.703125 
L 18.3125 18.015625 
Q 18.3125 11.328125 20.140625 9.421875 
Q 21.96875 7.515625 27.59375 7.515625 
L 36.8125 7.515625 
L 36.8125 0 
L 27.59375 0 
Q 17.1875 0 13.234375 3.875 
Q 9.28125 7.765625 9.28125 18.015625 
L 9.28125 47.703125 
L 2.6875 47.703125 
L 2.6875 54.6875 
L 9.28125 54.6875 
L 9.28125 70.21875 
z
" id="DejaVuSans-116"/>
      <path d="M 54.890625 33.015625 
L 54.890625 0 
L 45.90625 0 
L 45.90625 32.71875 
Q 45.90625 40.484375 42.875 44.328125 
Q 39.84375 48.1875 33.796875 48.1875 
Q 26.515625 48.1875 22.3125 43.546875 
Q 18.109375 38.921875 18.109375 30.90625 
L 18.109375 0 
L 9.078125 0 
L 9.078125 75.984375 
L 18.109375 75.984375 
L 18.109375 46.1875 
Q 21.34375 51.125 25.703125 53.5625 
Q 30.078125 56 35.796875 56 
Q 45.21875 56 50.046875 50.171875 
Q 54.890625 44.34375 54.890625 33.015625 
z
" id="DejaVuSans-104"/>
      <path d="M 41.109375 46.296875 
Q 39.59375 47.171875 37.8125 47.578125 
Q 36.03125 48 33.890625 48 
Q 26.265625 48 22.1875 43.046875 
Q 18.109375 38.09375 18.109375 28.8125 
L 18.109375 0 
L 9.078125 0 
L 9.078125 54.6875 
L 18.109375 54.6875 
L 18.109375 46.1875 
Q 20.953125 51.171875 25.484375 53.578125 
Q 30.03125 56 36.53125 56 
Q 37.453125 56 38.578125 55.875 
Q 39.703125 55.765625 41.0625 55.515625 
z
" id="DejaVuSans-114"/>
      <path d="M 30.609375 48.390625 
Q 23.390625 48.390625 19.1875 42.75 
Q 14.984375 37.109375 14.984375 27.296875 
Q 14.984375 17.484375 19.15625 11.84375 
Q 23.34375 6.203125 30.609375 6.203125 
Q 37.796875 6.203125 41.984375 11.859375 
Q 46.1875 17.53125 46.1875 27.296875 
Q 46.1875 37.015625 41.984375 42.703125 
Q 37.796875 48.390625 30.609375 48.390625 
z
M 30.609375 56 
Q 42.328125 56 49.015625 48.375 
Q 55.71875 40.765625 55.71875 27.296875 
Q 55.71875 13.875 49.015625 6.21875 
Q 42.328125 -1.421875 30.609375 -1.421875 
Q 18.84375 -1.421875 12.171875 6.21875 
Q 5.515625 13.875 5.515625 27.296875 
Q 5.515625 40.765625 12.171875 48.375 
Q 18.84375 56 30.609375 56 
z
" id="DejaVuSans-111"/>
      <path d="M 45.40625 46.390625 
L 45.40625 75.984375 
L 54.390625 75.984375 
L 54.390625 0 
L 45.40625 0 
L 45.40625 8.203125 
Q 42.578125 3.328125 38.25 0.953125 
Q 33.9375 -1.421875 27.875 -1.421875 
Q 17.96875 -1.421875 11.734375 6.484375 
Q 5.515625 14.40625 5.515625 27.296875 
Q 5.515625 40.1875 11.734375 48.09375 
Q 17.96875 56 27.875 56 
Q 33.9375 56 38.25 53.625 
Q 42.578125 51.265625 45.40625 46.390625 
z
M 14.796875 27.296875 
Q 14.796875 17.390625 18.875 11.75 
Q 22.953125 6.109375 30.078125 6.109375 
Q 37.203125 6.109375 41.296875 11.75 
Q 45.40625 17.390625 45.40625 27.296875 
Q 45.40625 37.203125 41.296875 42.84375 
Q 37.203125 48.484375 30.078125 48.484375 
Q 22.953125 48.484375 18.875 42.84375 
Q 14.796875 37.203125 14.796875 27.296875 
z
" id="DejaVuSans-100"/>
     </defs>
     <g transform="translate(285.41375 58.070438)scale(0.1 -0.1)">
      <use xlink:href="#DejaVuSans-109"/>
      <use x="97.412109" xlink:href="#DejaVuSans-97"/>
      <use x="158.691406" xlink:href="#DejaVuSans-110"/>
      <use x="222.070312" xlink:href="#DejaVuSans-117"/>
      <use x="285.449219" xlink:href="#DejaVuSans-97"/>
      <use x="346.728516" xlink:href="#DejaVuSans-108"/>
      <use x="374.511719" xlink:href="#DejaVuSans-108"/>
      <use x="402.294922" xlink:href="#DejaVuSans-121"/>
      <use x="461.474609" xlink:href="#DejaVuSans-32"/>
      <use x="493.261719" xlink:href="#DejaVuSans-115"/>
      <use x="545.361328" xlink:href="#DejaVuSans-101"/>
      <use x="606.884766" xlink:href="#DejaVuSans-116"/>
      <use x="646.09375" xlink:href="#DejaVuSans-32"/>
      <use x="677.880859" xlink:href="#DejaVuSans-116"/>
      <use x="717.089844" xlink:href="#DejaVuSans-104"/>
      <use x="780.46875" xlink:href="#DejaVuSans-114"/>
      <use x="821.550781" xlink:href="#DejaVuSans-101"/>
      <use x="883.074219" xlink:href="#DejaVuSans-115"/>
      <use x="935.173828" xlink:href="#DejaVuSans-104"/>
      <use x="998.552734" xlink:href="#DejaVuSans-111"/>
      <use x="1059.734375" xlink:href="#DejaVuSans-108"/>
      <use x="1087.517578" xlink:href="#DejaVuSans-100"/>
      <use x="1150.994141" xlink:href="#DejaVuSans-115"/>
     </g>
    </g>
    <g id="line2d_23">
     <path d="M 257.41375 69.248563 
L 277.41375 69.248563 
" style="fill:none;stroke:#ff7f0e;stroke-linecap:square;stroke-width:1.5;"/>
    </g>
    <g id="line2d_24"/>
    <g id="text_19">
     <!-- label only baseline -->
     <defs>
      <path d="M 48.6875 27.296875 
Q 48.6875 37.203125 44.609375 42.84375 
Q 40.53125 48.484375 33.40625 48.484375 
Q 26.265625 48.484375 22.1875 42.84375 
Q 18.109375 37.203125 18.109375 27.296875 
Q 18.109375 17.390625 22.1875 11.75 
Q 26.265625 6.109375 33.40625 6.109375 
Q 40.53125 6.109375 44.609375 11.75 
Q 48.6875 17.390625 48.6875 27.296875 
z
M 18.109375 46.390625 
Q 20.953125 51.265625 25.265625 53.625 
Q 29.59375 56 35.59375 56 
Q 45.5625 56 51.78125 48.09375 
Q 58.015625 40.1875 58.015625 27.296875 
Q 58.015625 14.40625 51.78125 6.484375 
Q 45.5625 -1.421875 35.59375 -1.421875 
Q 29.59375 -1.421875 25.265625 0.953125 
Q 20.953125 3.328125 18.109375 8.203125 
L 18.109375 0 
L 9.078125 0 
L 9.078125 75.984375 
L 18.109375 75.984375 
z
" id="DejaVuSans-98"/>
      <path d="M 9.421875 54.6875 
L 18.40625 54.6875 
L 18.40625 0 
L 9.421875 0 
z
M 9.421875 75.984375 
L 18.40625 75.984375 
L 18.40625 64.59375 
L 9.421875 64.59375 
z
" id="DejaVuSans-105"/>
     </defs>
     <g transform="translate(285.41375 72.748563)scale(0.1 -0.1)">
      <use xlink:href="#DejaVuSans-108"/>
      <use x="27.783203" xlink:href="#DejaVuSans-97"/>
      <use x="89.0625" xlink:href="#DejaVuSans-98"/>
      <use x="152.539062" xlink:href="#DejaVuSans-101"/>
      <use x="214.0625" xlink:href="#DejaVuSans-108"/>
      <use x="241.845703" xlink:href="#DejaVuSans-32"/>
      <use x="273.632812" xlink:href="#DejaVuSans-111"/>
      <use x="334.814453" xlink:href="#DejaVuSans-110"/>
      <use x="398.193359" xlink:href="#DejaVuSans-108"/>
      <use x="425.976562" xlink:href="#DejaVuSans-121"/>
      <use x="485.15625" xlink:href="#DejaVuSans-32"/>
      <use x="516.943359" xlink:href="#DejaVuSans-98"/>
      <use x="580.419922" xlink:href="#DejaVuSans-97"/>
      <use x="641.699219" xlink:href="#DejaVuSans-115"/>
      <use x="693.798828" xlink:href="#DejaVuSans-101"/>
      <use x="755.322266" xlink:href="#DejaVuSans-108"/>
      <use x="783.105469" xlink:href="#DejaVuSans-105"/>
      <use x="810.888672" xlink:href="#DejaVuSans-110"/>
      <use x="874.267578" xlink:href="#DejaVuSans-101"/>
     </g>
    </g>
    <g id="line2d_25">
     <path d="M 257.41375 83.926688 
L 277.41375 83.926688 
" style="fill:none;stroke:#2ca02c;stroke-linecap:square;stroke-width:1.5;"/>
    </g>
    <g id="line2d_26"/>
    <g id="text_20">
     <!-- RL trained - test -->
     <defs>
      <path d="M 44.390625 34.1875 
Q 47.5625 33.109375 50.5625 29.59375 
Q 53.5625 26.078125 56.59375 19.921875 
L 66.609375 0 
L 56 0 
L 46.6875 18.703125 
Q 43.0625 26.03125 39.671875 28.421875 
Q 36.28125 30.8125 30.421875 30.8125 
L 19.671875 30.8125 
L 19.671875 0 
L 9.8125 0 
L 9.8125 72.90625 
L 32.078125 72.90625 
Q 44.578125 72.90625 50.734375 67.671875 
Q 56.890625 62.453125 56.890625 51.90625 
Q 56.890625 45.015625 53.6875 40.46875 
Q 50.484375 35.9375 44.390625 34.1875 
z
M 19.671875 64.796875 
L 19.671875 38.921875 
L 32.078125 38.921875 
Q 39.203125 38.921875 42.84375 42.21875 
Q 46.484375 45.515625 46.484375 51.90625 
Q 46.484375 58.296875 42.84375 61.546875 
Q 39.203125 64.796875 32.078125 64.796875 
z
" id="DejaVuSans-82"/>
      <path d="M 9.8125 72.90625 
L 19.671875 72.90625 
L 19.671875 8.296875 
L 55.171875 8.296875 
L 55.171875 0 
L 9.8125 0 
z
" id="DejaVuSans-76"/>
      <path d="M 4.890625 31.390625 
L 31.203125 31.390625 
L 31.203125 23.390625 
L 4.890625 23.390625 
z
" id="DejaVuSans-45"/>
     </defs>
     <g transform="translate(285.41375 87.426688)scale(0.1 -0.1)">
      <use xlink:href="#DejaVuSans-82"/>
      <use x="69.482422" xlink:href="#DejaVuSans-76"/>
      <use x="125.195312" xlink:href="#DejaVuSans-32"/>
      <use x="156.982422" xlink:href="#DejaVuSans-116"/>
      <use x="196.191406" xlink:href="#DejaVuSans-114"/>
      <use x="237.304688" xlink:href="#DejaVuSans-97"/>
      <use x="298.583984" xlink:href="#DejaVuSans-105"/>
      <use x="326.367188" xlink:href="#DejaVuSans-110"/>
      <use x="389.746094" xlink:href="#DejaVuSans-101"/>
      <use x="451.269531" xlink:href="#DejaVuSans-100"/>
      <use x="514.746094" xlink:href="#DejaVuSans-32"/>
      <use x="546.533203" xlink:href="#DejaVuSans-45"/>
      <use x="582.617188" xlink:href="#DejaVuSans-32"/>
      <use x="614.404297" xlink:href="#DejaVuSans-116"/>
      <use x="653.613281" xlink:href="#DejaVuSans-101"/>
      <use x="715.136719" xlink:href="#DejaVuSans-115"/>
      <use x="767.236328" xlink:href="#DejaVuSans-116"/>
     </g>
    </g>
   </g>
  </g>
 </g>
 <defs>
  <clipPath id="p215e4ccfd7">
   <rect height="266.112" width="357.12" x="57.6" y="41.472"/>
  </clipPath>
 </defs>
</svg>
